<?xml version="1.0" encoding="utf-8"?>
<!-- Generator: Adobe Illustrator 28.0.0, SVG Export Plug-In . SVG Version: 6.00 Build 0)  -->
<svg version="1.1" id="圖層_1" xmlns="http://www.w3.org/2000/svg" xmlns:xlink="http://www.w3.org/1999/xlink" x="0px" y="0px"
	 viewBox="0 0 32 32" style="enable-background:new 0 0 32 32;" xml:space="preserve">
<style type="text/css">
	.st0{filter:url(#Adobe_OpacityMaskFilter);}
	.st1{fill:none;stroke:#FFFFFF;stroke-width:2.6667;stroke-linecap:round;stroke-linejoin:round;stroke-miterlimit:2.6667;}
	.st2{fill:none;stroke:#FFFFFF;stroke-width:2.6667;stroke-linecap:round;stroke-miterlimit:2.6667;}
	.st3{fill:#FFFFFF;stroke:#FFFFFF;stroke-width:2.6667;stroke-linecap:round;stroke-linejoin:round;stroke-miterlimit:2.6667;}
	.st4{fill:none;stroke:#000000;stroke-width:2.6667;stroke-linecap:round;stroke-linejoin:round;stroke-miterlimit:2.6667;}
	.st5{mask:url(#ipSExcel0_00000057123045544117587720000014395715925221087165_);fill:#04723A;}
</style>
<defs>
	<filter id="Adobe_OpacityMaskFilter" filterUnits="userSpaceOnUse" x="0" y="0" width="32" height="32">
		<feColorMatrix  type="matrix" values="1 0 0 0 0  0 1 0 0 0  0 0 1 0 0  0 0 0 1 0"/>
	</filter>
</defs>
<mask maskUnits="userSpaceOnUse" x="0" y="0" width="32" height="32" id="ipSExcel0_00000057123045544117587720000014395715925221087165_">
	<g class="st0">
		<path class="st1" d="M5.3,10V4c0-0.7,0.6-1.3,1.3-1.3h18.7c0.7,0,1.3,0.6,1.3,1.3v24c0,0.7-0.6,1.3-1.3,1.3H6.7
			c-0.7,0-1.3-0.6-1.3-1.3v-6"/>
		<path class="st2" d="M20.7,10h2 M18.7,15.3h4 M18.7,20.7h4"/>
		<path class="st3" d="M2.7,10h12v12h-12V10z"/>
		<path class="st4" d="M6.7,14l4,4 M10.7,14l-4,4"/>
	</g>
</mask>
<path class="st5" d="M0,0h32v32H0V0z"/>
</svg>
