<?xml version="1.0" encoding="UTF-8"?>
<svg id="_圖層_1" xmlns="http://www.w3.org/2000/svg" version="1.1" viewBox="0 0 32 32">
  <!-- Generator: Adobe Illustrator 29.8.2, SVG Export Plug-In . SVG Version: 2.1.1 Build 3)  -->
  <defs>
    <style>
      .st0 {
        fill: #fff;
      }
    </style>
  </defs>
  <path class="st0" d="M28,21.3V5.3H4v16h24ZM28,2.7c1.5,0,2.7,1.2,2.7,2.7v16c0,1.5-1.2,2.7-2.7,2.7h-9.3v2.7h2.7v2.7h-10.7v-2.7h2.7v-2.7H4c-1.5,0-2.7-1.2-2.7-2.7V5.3c0-1.5,1.2-2.7,2.7-2.7h24ZM6.7,8h12v6.7H6.7v-6.7ZM20,8h5.3v2.7h-5.3v-2.7ZM25.3,12v6.7h-5.3v-6.7s5.3,0,5.3,0ZM6.7,16h5.3v2.7h-5.3v-2.7ZM13.3,16h5.3v2.7h-5.3v-2.7Z"/>
</svg>