<svg xmlns="http://www.w3.org/2000/svg" width="84.77" height="79.478" viewBox="0 0 84.77 79.478">
    <defs>
        <linearGradient id="a" x1=".5" y1=".289" x2=".5" y2="1.194" gradientUnits="objectBoundingBox">
            <stop offset="0" stop-color="#e5ebf5"/>
            <stop offset="1" stop-color="#98accb"/>
        </linearGradient>
        <linearGradient id="b" x1=".243" y1="1.472" x2=".732" y2="1.467" gradientUnits="objectBoundingBox">
            <stop offset="0" stop-color="#b9c7dd"/>
            <stop offset="1" stop-color="#94a8c9"/>
        </linearGradient>
        <linearGradient id="c" x1=".118" y1=".5" x2="1" y2=".5" gradientUnits="objectBoundingBox">
            <stop offset="0" stop-color="#dee7f4"/>
            <stop offset="1" stop-color="#a5b5cd"/>
        </linearGradient>
        <linearGradient id="d" x1=".287" y1=".13" x2=".785" y2=".881" gradientUnits="objectBoundingBox">
            <stop offset="0" stop-color="#9aafce"/>
            <stop offset="1" stop-color="#f5f7fb"/>
        </linearGradient>
        <linearGradient id="e" x1=".287" y1=".13" x2=".785" y2=".881" gradientUnits="objectBoundingBox">
            <stop offset="0" stop-color="#7c95bd"/>
            <stop offset="1" stop-color="#f5f7fb"/>
        </linearGradient>
        <linearGradient id="f" x1=".287" y1=".13" x2=".785" y2=".881" gradientUnits="objectBoundingBox">
            <stop offset="0" stop-color="#b8cdef"/>
            <stop offset="1" stop-color="#f5f7fb"/>
        </linearGradient>
    </defs>
    <g transform="translate(-499 -410)">
        <path d="M53.537-.082c.008 6.552-4.9 11.857-10.968 11.848l-19.426-.076c3.968 1.795 7.606 6.014 7.612 10.947.008 6.552-8.281 11.916-14.346 11.907l-16.467.287" transform="rotate(-180 293.471 226.863)" style="fill:none;stroke:#707070;stroke-linejoin:round;stroke-miterlimit:10;stroke-dasharray:3" data-name="Group 12"/>
        <path data-name="路径 71" d="M28.326 54.949a4.208 4.208 0 0 1-1.919-.449L2.428 42.478a4.376 4.376 0 0 1-2.364-3.837A4.329 4.329 0 0 1 2.428 34.8l23.979-12.017a4.489 4.489 0 0 1 3.837 0L54.223 34.8a4.188 4.188 0 0 1 2.364 3.837 4.329 4.329 0 0 1-2.364 3.837L30.244 54.5a4.208 4.208 0 0 1-1.919.449zM5.37 38.706l22.959 11.511 22.959-11.511L28.14 27.13 5.37 38.706z" transform="translate(498.936 416.658)" style="fill:url(#a)"/>
        <path data-name="路径 72" d="M30.428 511.7 3.682 498.595a2.346 2.346 0 1 1 2.047-4.223l24.685 12.022 24.606-12.086a2.346 2.346 0 1 1 2.047 4.223L30.428 511.7z" transform="translate(496.769 -30.778)" style="fill:url(#b)"/>
        <path data-name="路径 73" d="M28.974 700.408 2.228 687.3a2.347 2.347 0 1 1 2.047-4.219L28.96 695.1l24.606-12.086a2.347 2.347 0 1 1 2.047 4.219l-26.639 13.175z" transform="translate(498.223 -210.929)" style="fill:#b3c2d9"/>
        <path data-name="路径 74" d="m16145.262-1552.85-23 12.22 23 12.1 22.978-12.1z" transform="translate(-15618 1996)" style="fill:url(#c)"/>
        <circle data-name="椭圆 18" cx="5" cy="5" r="5" transform="translate(541 423)" style="fill:url(#d)"/>
        <circle data-name="椭圆 27" cx="3.5" cy="3.5" r="3.5" transform="translate(563 454)" style="fill:url(#e)"/>
        <circle data-name="椭圆 28" cx="3.5" cy="3.5" r="3.5" transform="translate(570 410)" style="fill:url(#f)"/>
    </g>
</svg>
